<?xml version="1.0" encoding="UTF-8"?>
<svg id="_圖層_2" data-name="圖層 2" xmlns="http://www.w3.org/2000/svg" viewBox="0 0 1000 360">
  <defs>
    <style>
      .cls-1 {
        fill: #ebd426;
      }

      .cls-2 {
        fill: #2b2b2b;
      }
    </style>
  </defs>
  <g id="logo">
    <g>
      <g>
        <path class="cls-2" d="m612.84,162.56c-8.36,25.27-20.82,44.48-37.01,59.61,17.26,11.03,38.97,18.86,65.83,22.6-3.74,4.09-8.54,11.39-10.68,16.19-28.82-4.98-51.6-13.88-69.75-27.4-19.04,13.17-42.7,22.06-70.64,28.29-1.78-4.27-6.58-12.28-9.61-16.55,26.69-4.8,48.75-12.28,66.54-23.31-15.3-15.3-26.69-34.7-34.87-58.72l15.84-4.27c6.94,21.35,17.79,38.79,33.27,52.49,15.12-13.34,26.16-30.78,32.92-53.56l18.15,4.63Zm-89.85-30.07h-38.61v-16.01h38.61v-18.33h16.37v18.33h19.04v16.01h-19.04v21.53h-16.37v-21.53Zm61.74-.18h-19.39v-16.01h19.39v-18.15h16.55v18.15h38.08v16.01h-38.08v21.71h-16.55v-21.71Z"/>
        <path class="cls-2" d="m690.23,178.22c-6.94-6.23-21.17-14.41-32.74-19.22l8.72-12.45c11.39,4.45,25.98,12.1,33.27,17.97l-9.25,13.7Zm17.26,24.55c-8.72,18.5-19.93,39.68-29.89,56.22l-14.23-10.68c9.07-13.7,21.88-36.12,31.67-56.4l12.46,10.85Zm-7.83-71.17c-6.94-6.41-20.82-15.12-32.2-20.28l9.07-12.1c11.21,4.63,25.62,12.45,32.56,18.86l-9.43,13.52Zm121.52,109.96v14.59h-119.03v-14.59h53.02v-27.58h-41.1v-14.41h41.1v-21h-38.43v-71.7h95.37v71.7h-40.21v21h42.7v14.41h-42.7v27.58h49.29Zm-88.79-105.33h63.34v-15.48h-63.34v15.48Zm0,28.29h63.34v-15.48h-63.34v15.48Z"/>
        <path class="cls-2" d="m987.72,155.27l-2.67-1.96v91.28c0,8.01-1.96,12.1-7.3,14.41-5.52,2.31-14.23,2.49-27.04,2.49-.89-3.91-2.85-9.96-4.98-13.7,8.9.36,17.61.18,20.11,0,2.67,0,3.56-.89,3.56-3.38v-86.29h-44.48v102.13h-15.66v-102.13h-42.52v103.2h-15.3v-105.87c-1.42.89-3.02,1.6-4.45,2.31-2.85-3.02-8.72-8.36-12.28-10.85,14.41-5.52,29.54-14.23,38.97-23.66h-33.45v-14.77h155.15v14.77h-33.09c13.7,6.76,28.82,15.48,37.72,21.88l-12.28,10.14Zm-83.98,49.11c-2.14,5.69-4.8,11.21-7.65,16.37,4.09,3.2,7.65,6.23,10.14,8.72l-6.23,8.72c-2.31-2.49-5.69-5.52-9.43-8.72-4.45,6.58-9.25,12.46-14.23,17.08-1.78-1.6-6.23-4.8-8.72-6.23,5.34-4.8,10.32-10.68,14.77-17.08-3.91-2.85-8.01-5.52-11.74-7.65l6.23-8.01c3.38,1.96,7.12,4.45,10.68,6.94,2.14-4.09,4.09-8.36,5.69-12.63l10.5,2.49Zm-4.63-9.79c-2.31-2.31-5.52-5.16-9.25-7.83-3.91,5.52-8.18,10.5-12.46,14.59-1.96-1.6-6.23-4.45-8.72-5.87,4.63-4.09,9.07-9.07,13.17-14.59-3.74-2.31-7.29-4.45-10.85-6.23l6.23-7.65c3.2,1.6,6.58,3.56,9.96,5.52,2.31-3.56,4.27-7.47,5.87-11.39l10.14,2.49c-2.14,4.98-4.8,9.79-7.65,14.59,3.91,2.67,7.47,5.52,9.96,7.83l-6.41,8.54Zm10.14-50.18v-21.17h-29.54l10.68,3.91c-5.52,6.05-12.81,11.92-20.46,17.26h39.32Zm62.1,0c-9.07-5.52-19.75-11.21-28.82-15.48l7.47-5.69h-25.09v21.17h46.44Zm-11.92,92.17c-2.49-2.49-6.05-5.34-9.96-8.36-4.63,6.58-9.79,12.45-14.95,17.26-1.96-1.6-6.05-4.8-8.72-6.23,5.69-4.63,10.85-10.5,15.3-16.9-4.09-2.67-8.18-5.16-12.1-7.29l6.05-8.18c3.74,1.96,7.65,4.27,11.56,6.76,2.14-3.91,4.09-8.01,5.52-12.1l10.32,2.67c-1.96,5.16-4.45,10.32-7.29,15.12,4.09,3.02,7.83,5.87,10.5,8.36l-6.23,8.9Zm-1.6-41.28c-2.49-2.49-5.87-5.52-9.61-8.54-4.27,5.69-8.72,10.85-12.99,15.12-1.96-1.6-6.05-4.63-8.72-6.05,4.98-4.09,9.61-9.25,13.7-14.77-3.91-2.67-8.01-5.16-11.74-7.12l6.23-7.47c3.56,1.78,7.3,3.91,11.03,6.23,2.14-3.74,4.09-7.47,5.69-11.39l9.96,2.31c-2.14,4.98-4.63,9.96-7.47,14.59,4.09,3.02,7.83,6.05,10.5,8.54l-6.58,8.54Z"/>
      </g>
      <g>
        <path class="cls-1" d="m143.41,257.65l126.25-120.1c-3.07,1.72-6.34,3.32-9.78,4.76-25.73,10.8-51.06,8.71-56.56-4.66-1.42-3.45-1.38-7.31-.11-11.32l44.39-98.13L105.34,163.54h.8c6.5-5.72,15.07-11.08,24.98-15.24,25.73-10.8,50.76-9.45,55.89,3.02,1.19,2.88,1.2,6.1.21,9.48l-43.81,96.84h0Z"/>
        <path class="cls-1" d="m227.71.43v.12c70.1,18.77,121.04,75.33,121.04,142.2,0,5.96-.48,11.38-1.25,17.15-2.65,19.78-26.55,27.9-40.63,13.91-1.47-1.46-4.66-4.5-4.61-4.39l.22.51c4.94,11.47,7.65,23.88,7.65,36.84,0,58.44-54.9,105.82-122.63,105.82s-122.62-47.38-122.62-105.82c0-12.96,2.7-25.37,7.65-36.84l.22-.51c.05-.12-3.14,2.93-4.61,4.39-14.08,13.99-37.98,5.87-40.63-13.91-.77-5.77-1.25-11.19-1.25-17.15C26.25,75.22,78.2,18.19,149.39,0,64.11,17.08,0,90.33,0,178.12c0,100.45,83.95,181.88,187.5,181.88s187.5-81.43,187.5-181.88c0-87.06-63.06-159.83-147.29-177.68Z"/>
      </g>
    </g>
  </g>
</svg>