<?xml version="1.0" encoding="utf-8"?>
<!-- Generator: Adobe Illustrator 27.2.0, SVG Export Plug-In . SVG Version: 6.00 Build 0)  -->
<svg version="1.1" id="_圖層_2" xmlns="http://www.w3.org/2000/svg" xmlns:xlink="http://www.w3.org/1999/xlink" x="0px" y="0px"
	 viewBox="0 0 1000 960" style="enable-background:new 0 0 1000 960;" xml:space="preserve">
<style type="text/css">
	.st0{fill:#EBD426;}
</style>
<g>
	<path class="st0" d="M382.4,687.1l336.7-320.3c-8.2,4.6-16.9,8.9-26.1,12.7c-68.6,28.8-136.2,23.2-150.8-12.4
		c-3.8-9.2-3.7-19.5-0.3-30.2L660.3,75.2L280.9,436.1h2.1c17.3-15.3,40.2-29.5,66.6-40.6c68.6-28.8,135.4-25.2,149,8.1
		c3.2,7.7,3.2,16.3,0.6,25.3L382.4,687.1L382.4,687.1z"/>
	<path class="st0" d="M607.2,1.2v0.3C794.2,51.5,930,202.4,930,380.7c0,15.9-1.3,30.3-3.3,45.7c-7.1,52.7-70.8,74.4-108.4,37.1
		c-3.9-3.9-12.4-12-12.3-11.7c0.6,1.4,0.6,1.4,0.6,1.4c13.2,30.6,20.4,63.7,20.4,98.2c0,155.8-146.4,282.2-327,282.2
		S173,707.3,173,551.4c0-34.6,7.2-67.7,20.4-98.2c0,0,0,0,0.6-1.4c0.1-0.3-8.4,7.8-12.3,11.7c-37.5,37.3-101.3,15.6-108.4-37.1
		C71.3,411,70,396.6,70,380.7C70,200.6,208.5,48.5,398.4,0C171,45.6,0,240.9,0,475c0,267.9,223.9,485,500,485s500-217.2,500-485
		C1000,242.8,831.8,48.8,607.2,1.2z"/>
</g>
</svg>
